<svg width="1000" height="500" viewBox="0 0 1000 500" fill="none" xmlns="http://www.w3.org/2000/svg">
    <defs>
        <linearGradient id="lineGradient" x1="0%" y1="0%" x2="100%" y2="0%">
            <stop offset="0%" stop-color="#4338CA" />
            <stop offset="100%" stop-color="#8A70FF" />
        </linearGradient>
    </defs>

    <!-- Background Grid -->
    <g opacity="0.15" stroke="#B8B8D4" stroke-width="1" stroke-dasharray="4 4">
        <!-- Vertical grid lines -->
        <line x1="100" y1="50" x2="100" y2="450" />
        <line x1="200" y1="50" x2="200" y2="450" />
        <line x1="300" y1="50" x2="300" y2="450" />
        <line x1="400" y1="50" x2="400" y2="450" />
        <line x1="500" y1="50" x2="500" y2="450" />
        <line x1="600" y1="50" x2="600" y2="450" />
        <line x1="700" y1="50" x2="700" y2="450" />
        <line x1="800" y1="50" x2="800" y2="450" />
        <line x1="900" y1="50" x2="900" y2="450" />

        <!-- Horizontal grid lines -->
        <line x1="50" y1="100" x2="950" y2="100" />
        <line x1="50" y1="150" x2="950" y2="150" />
        <line x1="50" y1="200" x2="950" y2="200" />
        <line x1="50" y1="250" x2="950" y2="250" />
        <line x1="50" y1="300" x2="950" y2="300" />
        <line x1="50" y1="350" x2="950" y2="350" />
        <line x1="50" y1="400" x2="950" y2="400" />
    </g>

    <!-- Timeline -->
    <g>
        <!-- X-axis (Year) -->
        <line x1="60" y1="450" x2="940" y2="450" stroke="#FFFFFF" stroke-width="2" />

        <!-- Y-axis (Milestone Index) -->
        <line x1="60" y1="450" x2="60" y2="50" stroke="#FFFFFF" stroke-width="2" />

        <!-- Title -->
        <text x="500" y="30" font-family="Outfit, sans-serif" font-size="22" font-weight="600" fill="#FFFFFF" text-anchor="middle">Evolution of AI, ML, Deep Learning, GenAI, LLMs, Chatbots &amp; Agents</text>

        <!-- X-axis Label -->
        <text x="500" y="490" font-family="Outfit, sans-serif" font-size="18" fill="#B8B8D4" text-anchor="middle">Year</text>

        <!-- Y-axis Label -->
        <text x="20" y="250" font-family="Outfit, sans-serif" font-size="18" fill="#B8B8D4" text-anchor="middle" transform="rotate(-90, 20, 250)">Milestone Index</text>

        <!-- Year Ticks and Labels -->
        <line x1="90" y1="450" x2="90" y2="455" stroke="#FFFFFF" stroke-width="2" />
        <text x="90" y="475" font-family="Outfit, sans-serif" font-size="13" fill="#B8B8D4" text-anchor="middle">1950</text>

        <line x1="160" y1="450" x2="160" y2="455" stroke="#FFFFFF" stroke-width="2" />
        <text x="160" y="475" font-family="Outfit, sans-serif" font-size="13" fill="#B8B8D4" text-anchor="middle">1956</text>

        <line x1="320" y1="450" x2="320" y2="455" stroke="#FFFFFF" stroke-width="2" />
        <text x="320" y="475" font-family="Outfit, sans-serif" font-size="13" fill="#B8B8D4" text-anchor="middle">1980</text>

        <line x1="540" y1="450" x2="540" y2="455" stroke="#FFFFFF" stroke-width="2" />
        <text x="540" y="475" font-family="Outfit, sans-serif" font-size="13" fill="#B8B8D4" text-anchor="middle">2012</text>

        <line x1="610" y1="450" x2="610" y2="455" stroke="#FFFFFF" stroke-width="2" />
        <text x="610" y="475" font-family="Outfit, sans-serif" font-size="13" fill="#B8B8D4" text-anchor="middle">2017</text>

        <line x1="660" y1="450" x2="660" y2="455" stroke="#FFFFFF" stroke-width="2" />
        <text x="660" y="475" font-family="Outfit, sans-serif" font-size="13" fill="#B8B8D4" text-anchor="middle">2020</text>

        <line x1="710" y1="450" x2="710" y2="455" stroke="#FFFFFF" stroke-width="2" />
        <text x="710" y="475" font-family="Outfit, sans-serif" font-size="13" fill="#B8B8D4" text-anchor="middle">2022</text>

        <line x1="810" y1="450" x2="810" y2="455" stroke="#FFFFFF" stroke-width="2" />
        <text x="810" y="475" font-family="Outfit, sans-serif" font-size="13" fill="#B8B8D4" text-anchor="middle">2025</text>

        <line x1="920" y1="450" x2="920" y2="455" stroke="#FFFFFF" stroke-width="2" />
        <text x="920" y="475" font-family="Outfit, sans-serif" font-size="13" fill="#B8B8D4" text-anchor="middle">2026</text>
    </g>

    <!-- Timeline Path -->
    <path d="M90 410 L160 370 L320 320 L540 260 L610 210 L660 165 L710 120 L810 80 L920 50" stroke="url(#lineGradient)" stroke-width="3" fill="none">
        <animate attributeName="stroke-dasharray" from="0,2000" to="2000,0" dur="3s" begin="0.5s" fill="freeze" />
    </path>

    <!-- Milestone Points -->
    <g>
        <circle cx="90" cy="410" r="7" fill="#4338CA" stroke="#FFFFFF" stroke-width="2">
            <animate attributeName="r" values="7;9;7" dur="2s" repeatCount="indefinite" />
        </circle>
        <circle cx="160" cy="370" r="7" fill="#4338CA" stroke="#FFFFFF" stroke-width="2">
            <animate attributeName="r" values="7;9;7" dur="2s" begin="0.2s" repeatCount="indefinite" />
        </circle>
        <circle cx="320" cy="320" r="7" fill="#6E56CF" stroke="#FFFFFF" stroke-width="2">
            <animate attributeName="r" values="7;9;7" dur="2s" begin="0.4s" repeatCount="indefinite" />
        </circle>
        <circle cx="540" cy="260" r="7" fill="#6E56CF" stroke="#FFFFFF" stroke-width="2">
            <animate attributeName="r" values="7;9;7" dur="2s" begin="0.6s" repeatCount="indefinite" />
        </circle>
        <circle cx="610" cy="210" r="7" fill="#7A63E3" stroke="#FFFFFF" stroke-width="2">
            <animate attributeName="r" values="7;9;7" dur="2s" begin="0.8s" repeatCount="indefinite" />
        </circle>
        <circle cx="660" cy="165" r="7" fill="#7A63E3" stroke="#FFFFFF" stroke-width="2">
            <animate attributeName="r" values="7;9;7" dur="2s" begin="1s" repeatCount="indefinite" />
        </circle>
        <circle cx="710" cy="120" r="7" fill="#8A70FF" stroke="#FFFFFF" stroke-width="2">
            <animate attributeName="r" values="7;9;7" dur="2s" begin="1.2s" repeatCount="indefinite" />
        </circle>
        <circle cx="810" cy="80" r="7" fill="#8A70FF" stroke="#FFFFFF" stroke-width="2">
            <animate attributeName="r" values="7;9;7" dur="2s" begin="1.4s" repeatCount="indefinite" />
        </circle>
        <circle cx="920" cy="50" r="8" fill="#FF6B6B" stroke="#FFFFFF" stroke-width="2">
            <animate attributeName="r" values="8;11;8" dur="1.5s" repeatCount="indefinite" />
        </circle>
    </g>

    <!-- Milestone Labels -->
    <g>
        <!-- 1950: AI Concept (Turing Test) -->
        <rect x="100" y="400" width="185" height="25" rx="5" fill="#171727" stroke="#4338CA" stroke-width="1" />
        <text x="108" y="417" font-family="Outfit, sans-serif" font-size="11" fill="#FFFFFF">AI Concept (Turing Test)</text>

        <!-- 1956: Birth of AI (Dartmouth Conf.) -->
        <rect x="170" y="360" width="200" height="25" rx="5" fill="#171727" stroke="#4338CA" stroke-width="1" />
        <text x="178" y="377" font-family="Outfit, sans-serif" font-size="11" fill="#FFFFFF">Birth of AI (Dartmouth Conf.)</text>

        <!-- 1980: Machine Learning (Expert Systems) -->
        <rect x="330" y="310" width="210" height="25" rx="5" fill="#171727" stroke="#6E56CF" stroke-width="1" />
        <text x="338" y="327" font-family="Outfit, sans-serif" font-size="11" fill="#FFFFFF">Machine Learning (Expert Systems)</text>

        <!-- 2012: Deep Learning (AlexNet) -->
        <rect x="550" y="250" width="170" height="25" rx="5" fill="#171727" stroke="#6E56CF" stroke-width="1" />
        <text x="558" y="267" font-family="Outfit, sans-serif" font-size="11" fill="#FFFFFF">Deep Learning (AlexNet)</text>

        <!-- 2017: Generative AI (Transformers) -->
        <rect x="620" y="200" width="195" height="25" rx="5" fill="#171727" stroke="#7A63E3" stroke-width="1" />
        <text x="628" y="217" font-family="Outfit, sans-serif" font-size="11" fill="#FFFFFF">Generative AI (Transformers)</text>

        <!-- 2020: LLMs & Chatbots (GPT-3, ChatGPT) -->
        <rect x="670" y="155" width="220" height="25" rx="5" fill="#171727" stroke="#7A63E3" stroke-width="1" />
        <text x="678" y="172" font-family="Outfit, sans-serif" font-size="11" fill="#FFFFFF">LLMs &amp; Chatbots (GPT-3, ChatGPT)</text>

        <!-- 2022: ChatGPT-3.5 Release -->
        <rect x="720" y="110" width="155" height="25" rx="5" fill="#171727" stroke="#8A70FF" stroke-width="1" />
        <text x="728" y="127" font-family="Outfit, sans-serif" font-size="11" fill="#FFFFFF">ChatGPT-3.5 Release</text>

        <!-- 2025: Reasoning Models & Agents -->
        <rect x="820" y="70" width="180" height="25" rx="5" fill="#171727" stroke="#8A70FF" stroke-width="1" />
        <text x="828" y="87" font-family="Outfit, sans-serif" font-size="11" fill="#FFFFFF">Reasoning Models &amp; Agents</text>

        <!-- 2026: Agent Teams & 1M Context -->
        <rect x="790" y="38" width="195" height="26" rx="5" fill="#171727" stroke="#FF6B6B" stroke-width="1.5" />
        <text x="798" y="56" font-family="Outfit, sans-serif" font-size="11" fill="#FF6B6B" font-weight="600">Agent Teams &amp; 1M Context</text>
    </g>

    <!-- Legend -->
    <g transform="translate(60, 20)">
        <rect x="0" y="0" width="120" height="25" rx="5" fill="#171727" stroke="#FFFFFF" stroke-width="1" opacity="0.5" />
        <circle cx="15" cy="12.5" r="6" fill="#6E56CF" />
        <text x="30" y="17" font-family="Outfit, sans-serif" font-size="12" fill="#FFFFFF">AI Evolution</text>
    </g>

    <!-- Animated Highlight -->
    <path d="M90 410 L160 370 L320 320 L540 260 L610 210 L660 165 L710 120 L810 80 L920 50" stroke="#FFFFFF" stroke-width="1" fill="none" opacity="0.5">
        <animate attributeName="stroke-dashoffset" from="1000" to="0" dur="5s" repeatCount="indefinite" />
        <animate attributeName="stroke-dasharray" values="5,15" dur="5s" repeatCount="indefinite" />
    </path>
</svg>